<?xml version="1.0" standalone="no"?>
<!DOCTYPE svg PUBLIC "-//W3C//DTD SVG 20010904//EN"
 "http://www.w3.org/TR/2001/REC-SVG-20010904/DTD/svg10.dtd">
<svg version="1.0" xmlns="http://www.w3.org/2000/svg"
 width="197.000000pt" height="173.000000pt" viewBox="0 0 197.000000 173.000000"
 preserveAspectRatio="xMidYMid meet">
<metadata>
Created by potrace 1.11, written by Peter Selinger 2001-2013
</metadata>
<g transform="translate(0.000000,173.000000) scale(0.100000,-0.100000)"
fill="#000000" stroke="none">
<path d="M922 1610 c-18 -8 -23 -16 -20 -37 2 -23 8 -29 36 -31 32 -3 32 -4
32 -57 0 -51 -2 -55 -27 -60 -16 -4 -44 -10 -64 -14 -36 -8 -36 -8 -61 43 -24
50 -24 52 -6 69 15 14 16 22 8 37 -14 27 -47 25 -115 -4 -46 -21 -55 -29 -55
-50 0 -28 23 -46 51 -39 13 4 24 -7 43 -45 l26 -50 -43 -25 c-23 -14 -51 -35
-61 -46 l-20 -22 -47 47 -48 47 19 25 c24 30 11 62 -25 62 -29 0 -125 -104
-125 -137 0 -32 31 -46 59 -26 22 15 25 14 66 -27 l43 -42 -30 -48 -30 -49
-49 20 c-28 10 -52 19 -54 19 -2 0 -5 17 -7 38 -3 32 -7 37 -30 40 -31 4 -38
-6 -62 -99 -24 -90 -20 -114 19 -114 25 0 32 5 39 31 l9 31 52 -20 c52 -19 53
-20 45 -51 -5 -17 -11 -48 -15 -68 -6 -38 -6 -38 -55 -38 -46 0 -50 2 -50 23
0 35 -22 59 -51 55 -23 -3 -24 -6 -27 -89 -3 -108 8 -142 46 -137 22 2 28 8
30 36 3 31 4 32 52 32 46 0 50 -2 55 -27 4 -16 10 -45 15 -66 8 -38 8 -38 -38
-61 -46 -22 -47 -22 -65 -4 -14 14 -22 16 -37 8 -27 -14 -25 -47 4 -115 21
-46 29 -55 50 -55 28 0 46 23 39 51 -4 13 6 23 36 38 51 26 55 26 69 -3 6 -13
25 -40 43 -60 l32 -37 -43 -44 -43 -44 -25 19 c-30 24 -62 11 -62 -25 0 -29
104 -125 137 -125 32 0 46 31 26 60 -15 21 -14 24 24 62 l40 40 50 -29 50 -28
-20 -52 c-18 -48 -22 -52 -56 -55 -31 -3 -36 -7 -39 -30 -4 -31 6 -38 99 -62
90 -24 114 -20 114 19 0 25 -6 32 -30 40 l-31 10 16 42 c8 23 18 44 21 48 4 3
36 0 73 -6 l66 -12 0 -54 c0 -49 -2 -53 -23 -53 -35 0 -59 -22 -55 -51 3 -23
6 -24 89 -27 108 -3 142 8 137 46 -2 22 -8 28 -35 30 -33 3 -33 4 -33 57 0 51
2 55 28 60 15 4 43 10 63 14 36 8 36 8 61 -43 24 -50 24 -52 6 -69 -15 -14
-16 -22 -8 -37 14 -27 47 -25 115 4 46 21 55 29 55 50 0 28 -23 46 -51 39 -13
-4 -24 7 -43 45 l-26 50 43 25 c23 14 51 35 61 46 l20 22 47 -47 48 -47 -19
-25 c-24 -30 -11 -62 25 -62 29 0 125 104 125 137 0 32 -31 46 -59 26 -22 -15
-25 -14 -66 27 l-43 42 30 48 30 49 49 -20 c28 -10 52 -19 54 -19 2 0 5 -17 7
-37 3 -33 7 -38 30 -41 31 -4 38 6 62 99 24 90 20 114 -19 114 -25 0 -32 -5
-39 -31 l-9 -31 -52 20 c-52 19 -53 20 -45 51 5 17 11 48 15 69 6 37 6 37 55
37 46 0 50 -2 50 -23 0 -35 22 -59 51 -55 23 3 24 6 27 89 3 108 -8 142 -46
137 -22 -2 -28 -8 -30 -35 -3 -32 -4 -33 -52 -33 -46 0 -50 2 -55 28 -4 15
-10 44 -15 65 -8 38 -8 38 38 61 46 22 47 22 65 4 14 -14 22 -16 37 -8 27 14
25 47 -4 115 -21 46 -29 55 -50 55 -28 0 -46 -23 -39 -51 4 -13 -6 -23 -36
-38 -51 -26 -55 -26 -69 3 -6 13 -25 40 -43 60 l-32 37 43 44 43 44 25 -19
c30 -24 62 -11 62 25 0 29 -104 125 -137 125 -32 0 -46 -31 -26 -60 15 -21 14
-24 -24 -62 l-40 -40 -50 29 -50 28 20 52 c18 48 22 52 56 55 31 3 36 7 39 30
4 31 -6 38 -99 62 -90 24 -114 20 -114 -19 0 -25 6 -32 30 -40 l31 -10 -16
-42 c-8 -23 -18 -44 -21 -48 -4 -3 -36 0 -73 6 l-66 12 0 54 c0 49 2 53 23 53
35 0 59 22 55 51 -3 23 -6 24 -93 26 -49 1 -100 -2 -113 -7z m208 -246 c181
-42 330 -196 369 -382 53 -253 -109 -510 -364 -577 -312 -81 -632 195 -602
519 7 73 42 186 73 236 34 55 129 139 186 165 119 55 223 67 338 39z"/>
<path d="M895 1262 c-71 -25 -115 -54 -168 -111 -82 -87 -112 -175 -105 -305
4 -69 10 -96 36 -148 39 -79 120 -159 199 -196 52 -24 69 -27 168 -27 104 0
114 2 175 32 83 41 152 110 193 193 30 61 32 71 32 175 0 99 -3 116 -27 168
-37 79 -117 160 -196 199 -58 29 -77 33 -161 35 -72 2 -109 -2 -146 -15z m252
-84 c78 -29 152 -103 182 -183 82 -218 -73 -446 -304 -447 -290 -1 -435 351
-230 557 93 93 226 121 352 73z"/>
</g>
</svg>
